<svg xmlns="http://www.w3.org/2000/svg" width="32" height="32" viewBox="0 0 32 32">
  <defs>
    <linearGradient id="brainGradient" x1="0%" y1="0%" x2="100%" y2="100%">
      <stop offset="0%" style="stop-color:#8b5cf6;stop-opacity:1" />
      <stop offset="50%" style="stop-color:#06b6d4;stop-opacity:1" />
      <stop offset="100%" style="stop-color:#10b981;stop-opacity:1" />
    </linearGradient>
  </defs>
  
  <!-- Brain outline -->
  <path d="M16 4C12 4 8 6 8 10C8 12 9 14 10 15C8 16 6 18 6 21C6 25 10 28 16 28C22 28 26 25 26 21C26 18 24 16 22 15C23 14 24 12 24 10C24 6 20 4 16 4Z" 
        fill="url(#brainGradient)" stroke="none"/>
  
  <!-- Neural connections -->
  <circle cx="12" cy="12" r="1.5" fill="white" opacity="0.9"/>
  <circle cx="20" cy="12" r="1.5" fill="white" opacity="0.9"/>
  <circle cx="16" cy="16" r="1.5" fill="white" opacity="0.9"/>
  <circle cx="10" cy="20" r="1.5" fill="white" opacity="0.9"/>
  <circle cx="22" cy="20" r="1.5" fill="white" opacity="0.9"/>
  
  <!-- Connection lines -->
  <line x1="12" y1="12" x2="16" y2="16" stroke="white" stroke-width="1" opacity="0.6"/>
  <line x1="20" y1="12" x2="16" y2="16" stroke="white" stroke-width="1" opacity="0.6"/>
  <line x1="16" y1="16" x2="10" y2="20" stroke="white" stroke-width="1" opacity="0.6"/>
  <line x1="16" y1="16" x2="22" y2="20" stroke="white" stroke-width="1" opacity="0.6"/>
</svg>